<svg width="20" height="20" viewBox="0 0 20 20" fill="none" xmlns="http://www.w3.org/2000/svg">
<path d="M10.61 3.61C11.3181 2.90189 12.2786 2.50407 13.28 2.50407C14.2814 2.50407 15.2419 2.90189 15.95 3.61L16.317 3.978C17.0251 4.68614 17.4229 5.64656 17.4229 6.648C17.4229 7.64944 17.0251 8.60987 16.317 9.318L14.465 11.171C14.407 11.229 14.3381 11.2751 14.2622 11.3065C14.1864 11.3379 14.1051 11.3541 14.023 11.3541C13.9409 11.3541 13.8596 11.3379 13.7838 11.3065C13.708 11.2751 13.639 11.229 13.581 11.171C13.523 11.113 13.4769 11.0441 13.4455 10.9682C13.4141 10.8924 13.3979 10.8111 13.3979 10.729C13.3979 10.6469 13.4141 10.5656 13.4455 10.4898C13.4769 10.414 13.523 10.345 13.581 10.287L15.434 8.434C15.9076 7.9603 16.1737 7.31787 16.1737 6.648C16.1737 5.97814 15.9076 5.33571 15.434 4.862L15.066 4.495C14.5923 4.02138 13.9499 3.75531 13.28 3.75531C12.6101 3.75531 11.9677 4.02138 11.494 4.495L9.641 6.347C9.52265 6.45846 9.36552 6.51941 9.20297 6.51692C9.04041 6.51444 8.88522 6.44871 8.77033 6.33369C8.65544 6.21867 8.58989 6.0634 8.58759 5.90085C8.58529 5.73829 8.64641 5.58123 8.758 5.463L10.61 3.61Z" fill="black" fill-opacity="0.8"/>
<path d="M12.98 6.949C13.0969 7.06617 13.1626 7.22496 13.1626 7.3905C13.1626 7.55604 13.0969 7.71483 12.98 7.832L7.52997 13.281C7.47193 13.339 7.40302 13.3851 7.32718 13.4165C7.25134 13.4479 7.17006 13.4641 7.08797 13.4641C7.00589 13.4641 6.9246 13.4479 6.84876 13.4165C6.77293 13.3851 6.70402 13.339 6.64597 13.281C6.58793 13.223 6.54189 13.154 6.51047 13.0782C6.47906 13.0024 6.46289 12.9211 6.46289 12.839C6.46289 12.7569 6.47906 12.6756 6.51047 12.5998C6.54189 12.524 6.58793 12.455 6.64597 12.397L12.094 6.949C12.152 6.89095 12.2209 6.8449 12.2968 6.81348C12.3726 6.78206 12.4539 6.76588 12.536 6.76588C12.6181 6.76588 12.6993 6.78206 12.7752 6.81348C12.851 6.8449 12.9199 6.89095 12.978 6.949" fill="black" fill-opacity="0.8"/>
<path d="M6.348 8.757C6.40605 8.81504 6.4521 8.88395 6.48352 8.95978C6.51494 9.03562 6.53111 9.11691 6.53111 9.199C6.53111 9.28109 6.51494 9.36238 6.48352 9.43822C6.4521 9.51405 6.40605 9.58296 6.348 9.641L4.495 11.494C4.02137 11.9677 3.7553 12.6101 3.7553 13.28C3.7553 13.9499 4.02137 14.5923 4.495 15.066L4.862 15.433C5.3357 15.9066 5.97813 16.1727 6.64799 16.1727C7.31786 16.1727 7.96029 15.9066 8.434 15.433L10.287 13.581C10.3443 13.5201 10.4133 13.4714 10.4898 13.4376C10.5663 13.4039 10.6488 13.3858 10.7324 13.3846C10.8161 13.3833 10.8991 13.3988 10.9766 13.4302C11.0541 13.4616 11.1245 13.5082 11.1837 13.5673C11.2429 13.6264 11.2896 13.6968 11.321 13.7742C11.3525 13.8517 11.3681 13.9347 11.3669 14.0183C11.3658 14.1019 11.3478 14.1845 11.3141 14.261C11.2805 14.3376 11.2318 14.4066 11.171 14.464L9.318 16.317C8.60986 17.0251 7.64944 17.4229 6.64799 17.4229C5.64655 17.4229 4.68613 17.0251 3.978 16.317L3.611 15.95C2.90288 15.2419 2.50507 14.2814 2.50507 13.28C2.50507 12.2786 2.90288 11.3181 3.611 10.61L5.464 8.757C5.52203 8.69895 5.59094 8.65289 5.66678 8.62147C5.74262 8.59005 5.82391 8.57388 5.906 8.57388C5.98809 8.57388 6.06937 8.59005 6.14521 8.62147C6.22105 8.65289 6.28996 8.69895 6.348 8.757Z" fill="black" fill-opacity="0.8"/>
</svg>
