<svg width="20" height="20" viewBox="0 0 20 20" fill="none" xmlns="http://www.w3.org/2000/svg">
<path d="M14.075 3.45C14.017 3.39195 13.948 3.34589 13.8722 3.31448C13.7964 3.28306 13.7151 3.26688 13.633 3.26688C13.5509 3.26688 13.4696 3.28306 13.3938 3.31448C13.3179 3.34589 13.249 3.39195 13.191 3.45L9.69399 6.95C9.5824 7.06823 9.52127 7.22529 9.52357 7.38784C9.52588 7.5504 9.59143 7.70566 9.70632 7.82068C9.82121 7.93571 9.9764 8.00143 10.139 8.00392C10.3015 8.00641 10.4586 7.94546 10.577 7.834L13.008 5.403V16.108C13.008 16.2738 13.0738 16.4327 13.191 16.5499C13.3083 16.6672 13.4672 16.733 13.633 16.733C13.7988 16.733 13.9577 16.6672 14.0749 16.5499C14.1921 16.4327 14.258 16.2738 14.258 16.108V5.402L16.689 7.832C16.7463 7.89288 16.8153 7.94164 16.8918 7.97538C16.9683 8.00912 17.0508 8.02717 17.1344 8.02845C17.2181 8.02973 17.3011 8.01421 17.3786 7.98283C17.4561 7.95144 17.5265 7.90481 17.5857 7.84571C17.6449 7.78662 17.6916 7.71624 17.723 7.63877C17.7545 7.56129 17.7701 7.47829 17.7689 7.39467C17.7677 7.31106 17.7498 7.22853 17.7161 7.15197C17.6825 7.07542 17.6338 7.0064 17.573 6.949L14.075 3.45ZM2.42699 12.167C2.48503 12.1089 2.55394 12.0629 2.62977 12.0315C2.70561 12.0001 2.7869 11.9839 2.86899 11.9839C2.95108 11.9839 3.03237 12.0001 3.1082 12.0315C3.18404 12.0629 3.25295 12.1089 3.31099 12.167L5.74099 14.598V3.893C5.74099 3.72724 5.80684 3.56827 5.92405 3.45106C6.04126 3.33385 6.20023 3.268 6.36599 3.268C6.53175 3.268 6.69072 3.33385 6.80793 3.45106C6.92514 3.56827 6.99099 3.72724 6.99099 3.893V14.598L9.42199 12.168C9.54022 12.0564 9.69728 11.9953 9.85983 11.9976C10.0224 11.9999 10.1777 12.0654 10.2927 12.1803C10.4077 12.2952 10.4734 12.4504 10.4759 12.613C10.4784 12.7755 10.4174 12.9326 10.306 13.051L6.80999 16.55C6.75195 16.6081 6.68304 16.6541 6.6072 16.6855C6.53137 16.7169 6.45008 16.7331 6.36799 16.7331C6.2859 16.7331 6.20461 16.7169 6.12877 16.6855C6.05293 16.6541 5.98403 16.6081 5.92599 16.55L2.42799 13.052C2.36994 12.994 2.32388 12.9251 2.29246 12.8492C2.26104 12.7734 2.24487 12.6921 2.24487 12.61C2.24487 12.5279 2.26104 12.4466 2.29246 12.3708C2.32388 12.2949 2.36994 12.226 2.42799 12.168" fill="black" fill-opacity="0.8"/>
</svg>
