<svg width="20" height="20" viewBox="0 0 20 20" fill="none" xmlns="http://www.w3.org/2000/svg">
<path d="M9.792 2.41C9.70353 2.44042 9.62339 2.4911 9.558 2.558L4.158 7.958C4.09995 8.01605 4.05391 8.08495 4.0225 8.16079C3.99108 8.23663 3.97491 8.31791 3.97491 8.4C3.97491 8.56578 4.04077 8.72478 4.158 8.842C4.27522 8.95923 4.43421 9.02508 4.6 9.02508C4.76578 9.02508 4.92477 8.95923 5.042 8.842L9.375 4.509V17C9.375 17.1658 9.44084 17.3247 9.55805 17.4419C9.67527 17.5592 9.83424 17.625 10 17.625C10.1658 17.625 10.3247 17.5592 10.4419 17.4419C10.5591 17.3247 10.625 17.1658 10.625 17V4.509L14.958 8.842C15.0752 8.95923 15.2342 9.02508 15.4 9.02508C15.5658 9.02508 15.7248 8.95923 15.842 8.842C15.9592 8.72478 16.0251 8.56578 16.0251 8.4C16.0251 8.23422 15.9592 8.07523 15.842 7.958L10.442 2.558C10.3589 2.47416 10.2536 2.41579 10.1384 2.38975C10.0233 2.3637 9.90309 2.37008 9.792 2.41Z" fill="black" fill-opacity="0.8"/>
</svg>
