<svg width="20" height="20" viewBox="0 0 20 20" fill="none" xmlns="http://www.w3.org/2000/svg">
<path d="M9.792 17.59C9.70353 17.5596 9.62339 17.5089 9.558 17.442L4.158 12.042C4.09995 11.984 4.05391 11.915 4.0225 11.8392C3.99108 11.7634 3.97491 11.6821 3.97491 11.6C3.97491 11.4342 4.04077 11.2752 4.158 11.158C4.27522 11.0408 4.43421 10.9749 4.6 10.9749C4.76578 10.9749 4.92477 11.0408 5.042 11.158L9.375 15.491V3C9.375 2.83424 9.44084 2.67527 9.55805 2.55806C9.67527 2.44085 9.83424 2.375 10 2.375C10.1658 2.375 10.3247 2.44085 10.4419 2.55806C10.5591 2.67527 10.625 2.83424 10.625 3V15.491L14.958 11.158C15.0752 11.0408 15.2342 10.9749 15.4 10.9749C15.5658 10.9749 15.7248 11.0408 15.842 11.158C15.9592 11.2752 16.0251 11.4342 16.0251 11.6C16.0251 11.7658 15.9592 11.9248 15.842 12.042L10.442 17.442C10.3589 17.5258 10.2536 17.5842 10.1384 17.6103C10.0233 17.6363 9.90309 17.6299 9.792 17.59Z" fill="black" fill-opacity="0.8"/>
</svg>
