<svg width="20" height="20" viewBox="0 0 20 20" fill="none" xmlns="http://www.w3.org/2000/svg">
<path d="M15.575 5.05C15.575 4.88424 15.5092 4.72527 15.392 4.60806C15.2748 4.49085 15.1158 4.425 14.95 4.425H7.31302C7.14726 4.425 6.98829 4.49085 6.87108 4.60806C6.75387 4.72527 6.68802 4.88424 6.68802 5.05C6.68802 5.21576 6.75387 5.37473 6.87108 5.49194C6.98829 5.60916 7.14726 5.675 7.31302 5.675H13.441L4.59602 14.52C4.48206 14.6373 4.41932 14.795 4.42157 14.9585C4.42382 15.122 4.49088 15.2779 4.60802 15.392C4.85202 15.636 5.24302 15.642 5.48002 15.404L14.325 6.559V12.687C14.325 12.8528 14.3909 13.0117 14.5081 13.1289C14.6253 13.2462 14.7843 13.312 14.95 13.312C15.1158 13.312 15.2748 13.2462 15.392 13.1289C15.5092 13.0117 15.575 12.8528 15.575 12.687V5.05Z" fill="black" fill-opacity="0.8"/>
</svg>
