<svg width="20" height="20" viewBox="0 0 20 20" fill="none" xmlns="http://www.w3.org/2000/svg">
<path d="M12.408 4.792C12.35 4.73395 12.3039 4.66504 12.2725 4.58921C12.2411 4.51337 12.2249 4.43208 12.2249 4.35C12.2249 4.18421 12.2908 4.02522 12.408 3.908C12.5252 3.79077 12.6842 3.72491 12.85 3.72491C12.9321 3.72491 13.0134 3.74108 13.0892 3.7725C13.165 3.80391 13.234 3.84995 13.292 3.908L17.692 8.308C17.7501 8.36604 17.7961 8.43494 17.8275 8.51078C17.8589 8.58662 17.8751 8.66791 17.8751 8.75C17.8751 8.83209 17.8589 8.91337 17.8275 8.98921C17.7961 9.06505 17.7501 9.13396 17.692 9.192L13.292 13.592C13.1748 13.7092 13.0158 13.7751 12.85 13.7751C12.6842 13.7751 12.5252 13.7092 12.408 13.592C12.2908 13.4748 12.2249 13.3158 12.2249 13.15C12.2249 12.9842 12.2908 12.8252 12.408 12.708L15.741 9.375H5.25C5.01794 9.375 4.79538 9.46718 4.63128 9.63128C4.46719 9.79537 4.375 10.0179 4.375 10.25V15.25C4.375 15.4158 4.30915 15.5747 4.19194 15.6919C4.07473 15.8091 3.91576 15.875 3.75 15.875C3.58424 15.875 3.42527 15.8091 3.30806 15.6919C3.19085 15.5747 3.125 15.4158 3.125 15.25V10.25C3.125 9.077 4.076 8.125 5.25 8.125H15.741L12.408 4.792Z" fill="black" fill-opacity="0.8"/>
</svg>
