<svg width="20" height="20" viewBox="0 0 20 20" fill="none" xmlns="http://www.w3.org/2000/svg">
<path d="M4.89701 3.085L4.77501 2.943C4.66706 2.81702 4.5135 2.73908 4.34809 2.72633C4.18268 2.71358 4.01899 2.76705 3.89301 2.875C3.76703 2.98294 3.68909 3.13651 3.67634 3.30191C3.66359 3.46732 3.71706 3.63102 3.82501 3.757L7.00501 7.467H3.02501C2.89322 7.46726 2.76488 7.50917 2.65835 7.58675C2.55181 7.66432 2.47252 7.77359 2.43181 7.89894C2.3911 8.02428 2.39106 8.15929 2.43168 8.28466C2.47231 8.41003 2.55152 8.51935 2.65801 8.597L6.60001 11.462L5.09401 16.098C5.05309 16.2236 5.053 16.3589 5.09375 16.4845C5.13451 16.6101 5.21402 16.7196 5.32086 16.7973C5.42771 16.8749 5.5564 16.9167 5.68848 16.9166C5.82055 16.9166 5.94922 16.8747 6.05601 16.797L10 13.932L13.943 16.797C14.0131 16.848 14.093 16.8838 14.1776 16.9022C14.2623 16.9207 14.3498 16.9213 14.4348 16.9041C14.5197 16.8869 14.6001 16.8522 14.6709 16.8023C14.7417 16.7523 14.8013 16.6882 14.846 16.614L16.061 18.032C16.169 18.158 16.3225 18.2359 16.4879 18.2487C16.6533 18.2614 16.817 18.2079 16.943 18.1C17.069 17.9921 17.1469 17.8385 17.1597 17.6731C17.1724 17.5077 17.119 17.344 17.011 17.218L16.516 16.642C16.4685 16.6105 16.4258 16.5725 16.389 16.529L4.98901 3.229C4.95128 3.1857 4.92096 3.1372 4.89701 3.085ZM4.94701 8.717H8.07601L13.094 14.57L13.121 14.655L10.366 12.654C10.2593 12.5766 10.1308 12.5349 9.99901 12.5349C9.86717 12.5349 9.73872 12.5766 9.63201 12.654L6.87701 14.654L7.92901 11.417C7.97008 11.2913 7.97024 11.1558 7.92945 11.03C7.88866 10.9043 7.80903 10.7947 7.70201 10.717L4.94701 8.717ZM13.58 11.33L17.342 8.597C17.4485 8.51935 17.5277 8.41003 17.5683 8.28466C17.609 8.15929 17.6089 8.02428 17.5682 7.89894C17.5275 7.77359 17.4482 7.66432 17.3417 7.58675C17.2351 7.50917 17.1068 7.46726 16.975 7.467H12.1L10.594 2.83C10.553 2.70477 10.4735 2.5957 10.3668 2.51837C10.2602 2.44103 10.1318 2.39939 10 2.39939C9.86825 2.39939 9.73986 2.44103 9.63318 2.51837C9.5265 2.5957 9.44699 2.70477 9.40601 2.83L8.55001 5.463L9.50301 6.575L10 5.046L11.052 8.285C11.0928 8.41065 11.1724 8.52014 11.2793 8.59775C11.3862 8.67537 11.5149 8.71711 11.647 8.717H15.051L12.764 10.379L13.58 11.33Z" fill="black" fill-opacity="0.8"/>
</svg>
