<svg width="16" height="16" viewBox="0 0 16 16" fill="none" xmlns="http://www.w3.org/2000/svg">
<path d="M6.722 3.238C6.66396 3.17995 6.59505 3.13391 6.51921 3.1025C6.44337 3.07108 6.36209 3.05492 6.28 3.05492C6.19791 3.05492 6.11663 3.07108 6.04079 3.1025C5.96495 3.13391 5.89605 3.17995 5.838 3.238C5.77996 3.29604 5.73391 3.36495 5.7025 3.44079C5.67109 3.51663 5.65492 3.59791 5.65492 3.68C5.65492 3.76209 5.67109 3.84337 5.7025 3.91921C5.73391 3.99505 5.77996 4.06395 5.838 4.122L9.716 8L5.838 11.878C5.72078 11.9952 5.65492 12.1542 5.65492 12.32C5.65492 12.4858 5.72078 12.6448 5.838 12.762C5.95523 12.8792 6.11422 12.9451 6.28 12.9451C6.44578 12.9451 6.60478 12.8792 6.722 12.762L11.042 8.442C11.1001 8.38396 11.1461 8.31505 11.1775 8.23921C11.2089 8.16337 11.2251 8.08209 11.2251 8C11.2251 7.91791 11.2089 7.83662 11.1775 7.76078C11.1461 7.68494 11.1001 7.61604 11.042 7.558L6.722 3.238Z" fill="black" fill-opacity="0.4"/>
</svg>
