<svg width="20" height="20" viewBox="0 0 20 20" fill="none" xmlns="http://www.w3.org/2000/svg">
<path d="M8.848 3.085C9.188 3.145 9.415 3.469 9.355 3.809L8.745 7.275H12.165L12.815 3.592C12.8497 3.43472 12.9438 3.29692 13.0777 3.20733C13.2115 3.11774 13.3748 3.08328 13.5334 3.11114C13.692 3.139 13.8338 3.22702 13.9291 3.35685C14.0244 3.48668 14.066 3.6483 14.045 3.808L13.435 7.275H15.87C16.0358 7.275 16.1947 7.34084 16.3119 7.45806C16.4292 7.57527 16.495 7.73424 16.495 7.9C16.495 8.06576 16.4292 8.22473 16.3119 8.34194C16.1947 8.45915 16.0358 8.525 15.87 8.525H13.215L12.695 11.475H15.13C15.2958 11.475 15.4547 11.5408 15.5719 11.6581C15.6892 11.7753 15.755 11.9342 15.755 12.1C15.755 12.2658 15.6892 12.4247 15.5719 12.5419C15.4547 12.6591 15.2958 12.725 15.13 12.725H12.475L11.825 16.409C11.7906 16.5667 11.6965 16.705 11.5625 16.7949C11.4284 16.8848 11.2647 16.9194 11.1058 16.8913C10.9468 16.8633 10.8049 16.7748 10.7096 16.6445C10.6144 16.5141 10.5734 16.352 10.595 16.192L11.205 12.725H7.785L7.135 16.409C7.10061 16.5667 7.00653 16.705 6.87246 16.7949C6.73839 16.8848 6.57474 16.9194 6.41577 16.8913C6.2568 16.8633 6.11485 16.7748 6.01964 16.6445C5.92444 16.5141 5.88335 16.352 5.905 16.192L6.515 12.725H4.13C3.96424 12.725 3.80527 12.6591 3.68806 12.5419C3.57085 12.4247 3.505 12.2658 3.505 12.1C3.505 11.9342 3.57085 11.7753 3.68806 11.6581C3.80527 11.5408 3.96424 11.475 4.13 11.475H6.735L7.255 8.525H4.87C4.70424 8.525 4.54527 8.45915 4.42806 8.34194C4.31085 8.22473 4.245 8.06576 4.245 7.9C4.245 7.73424 4.31085 7.57527 4.42806 7.45806C4.54527 7.34084 4.70424 7.275 4.87 7.275H7.475L8.125 3.592C8.15379 3.42896 8.24609 3.28401 8.38164 3.18896C8.51719 3.0939 8.68492 3.05652 8.848 3.085ZM11.426 11.475L11.946 8.525H8.523L8.00301 11.475H11.426Z" fill="black" fill-opacity="0.8"/>
</svg>
