<svg width="20" height="20" viewBox="0 0 20 20" fill="none" xmlns="http://www.w3.org/2000/svg">
<path d="M10 2.399C10.27 2.399 10.51 2.573 10.594 2.831L12.101 7.467H16.975C17.1068 7.46726 17.2351 7.50918 17.3417 7.58675C17.4482 7.66433 17.5275 7.7736 17.5682 7.89894C17.6089 8.02429 17.609 8.15929 17.5683 8.28466C17.5277 8.41003 17.4485 8.51935 17.342 8.597L13.4 11.462L14.906 16.098C14.9469 16.2236 14.947 16.3589 14.9063 16.4845C14.8655 16.6101 14.786 16.7196 14.6792 16.7973C14.5723 16.8749 14.4436 16.9167 14.3115 16.9167C14.1795 16.9166 14.0508 16.8747 13.944 16.797L10 13.932L6.05701 16.797C5.95022 16.8747 5.82155 16.9166 5.68948 16.9167C5.5574 16.9167 5.42871 16.8749 5.32186 16.7973C5.21502 16.7196 5.13551 16.6101 5.09475 16.4845C5.054 16.3589 5.05409 16.2236 5.09501 16.098L6.60001 11.462L2.65801 8.597C2.55152 8.51935 2.47231 8.41003 2.43168 8.28466C2.39106 8.15929 2.3911 8.02429 2.43181 7.89894C2.47252 7.7736 2.55181 7.66433 2.65835 7.58675C2.76488 7.50918 2.89322 7.46726 3.02501 7.467H7.89901L9.40601 2.83C9.44692 2.7047 9.5264 2.59555 9.63309 2.51814C9.73977 2.44073 9.8682 2.39903 10 2.399ZM10 5.046L8.94801 8.285C8.90721 8.41065 8.82766 8.52014 8.72076 8.59776C8.61386 8.67537 8.48511 8.71712 8.35301 8.717H4.95001L7.70401 10.717C7.92401 10.877 8.01401 11.159 7.93101 11.417L6.87901 14.655L9.63401 12.654C9.74072 12.5766 9.86918 12.5349 10.001 12.5349C10.1328 12.5349 10.2613 12.5766 10.368 12.654L13.123 14.654L12.071 11.417C12.0299 11.2913 12.0298 11.1558 12.0706 11.0301C12.1114 10.9043 12.191 10.7947 12.298 10.717L15.052 8.717H11.647C11.5151 8.71691 11.3866 8.67506 11.2799 8.59746C11.1732 8.51986 11.0937 8.41049 11.053 8.285L10 5.046Z" fill="black" fill-opacity="0.8"/>
</svg>
