<svg width="20" height="20" viewBox="0 0 20 20" fill="none" xmlns="http://www.w3.org/2000/svg">
<path d="M10.392 6.125C10.2594 6.125 10.1322 6.17768 10.0385 6.27145C9.94471 6.36521 9.89203 6.49239 9.89203 6.625V13.375C9.89203 13.5076 9.94471 13.6348 10.0385 13.7286C10.1322 13.8223 10.2594 13.875 10.392 13.875H15.075C15.2076 13.875 15.3348 13.8223 15.4286 13.7286C15.5224 13.6348 15.575 13.5076 15.575 13.375V6.625C15.575 6.49239 15.5224 6.36521 15.4286 6.27145C15.3348 6.17768 15.2076 6.125 15.075 6.125H10.392Z" fill="black" fill-opacity="0.8"/>
<path d="M4.5 4.125C3.93641 4.125 3.39591 4.34888 2.9974 4.7474C2.59888 5.14591 2.375 5.68641 2.375 6.25V13.75C2.375 14.924 3.326 15.875 4.5 15.875H15.5C15.7791 15.875 16.0554 15.82 16.3132 15.7132C16.571 15.6065 16.8053 15.4499 17.0026 15.2526C17.1999 15.0553 17.3565 14.821 17.4632 14.5632C17.57 14.3054 17.625 14.0291 17.625 13.75V6.25C17.625 5.97094 17.57 5.69461 17.4632 5.4368C17.3565 5.17898 17.1999 4.94472 17.0026 4.7474C16.8053 4.55007 16.571 4.39355 16.3132 4.28676C16.0554 4.17996 15.7791 4.125 15.5 4.125H4.5ZM3.625 6.25C3.625 5.767 4.017 5.375 4.5 5.375H15.5C15.983 5.375 16.375 5.767 16.375 6.25V13.75C16.375 13.9821 16.2828 14.2046 16.1187 14.3687C15.9546 14.5328 15.7321 14.625 15.5 14.625H4.5C4.26794 14.625 4.04538 14.5328 3.88128 14.3687C3.71719 14.2046 3.625 13.9821 3.625 13.75V6.25Z" fill="black" fill-opacity="0.8"/>
</svg>
