<svg width="20" height="20" viewBox="0 0 20 20" fill="none" xmlns="http://www.w3.org/2000/svg">
<path d="M8.80599 8.505C8.80599 8.35913 8.74805 8.21924 8.6449 8.11609C8.54176 8.01295 8.40186 7.955 8.25599 7.955C8.11012 7.955 7.97023 8.01295 7.86708 8.11609C7.76394 8.21924 7.70599 8.35913 7.70599 8.505V14.484C7.70599 14.5562 7.72022 14.6277 7.74786 14.6945C7.7755 14.7612 7.81601 14.8218 7.86708 14.8729C7.91816 14.924 7.97879 14.9645 8.04552 14.9921C8.11225 15.0198 8.18377 15.034 8.25599 15.034C8.32822 15.034 8.39974 15.0198 8.46647 14.9921C8.5332 14.9645 8.59383 14.924 8.6449 14.8729C8.69597 14.8218 8.73649 14.7612 8.76413 14.6945C8.79177 14.6277 8.80599 14.5562 8.80599 14.484V8.505ZM12.294 8.505C12.294 8.35913 12.236 8.21924 12.1329 8.11609C12.0298 8.01295 11.8899 7.955 11.744 7.955C11.5981 7.955 11.4582 8.01295 11.3551 8.11609C11.2519 8.21924 11.194 8.35913 11.194 8.505V14.484C11.194 14.5562 11.2082 14.6277 11.2359 14.6945C11.2635 14.7612 11.304 14.8218 11.3551 14.8729C11.4062 14.924 11.4668 14.9645 11.5335 14.9921C11.6002 15.0198 11.6718 15.034 11.744 15.034C11.8162 15.034 11.8877 15.0198 11.9545 14.9921C12.0212 14.9645 12.0818 14.924 12.1329 14.8729C12.184 14.8218 12.2245 14.7612 12.2521 14.6945C12.2798 14.6277 12.294 14.5562 12.294 14.484V8.505Z" fill="#EB5757"/>
<path d="M6.38601 3.925V5.389H3.52301C3.35725 5.389 3.19828 5.45485 3.08107 5.57206C2.96386 5.68927 2.89801 5.84824 2.89801 6.014C2.89801 6.17976 2.96386 6.33873 3.08107 6.45594C3.19828 6.57315 3.35725 6.639 3.52301 6.639H4.42001L4.81301 15.285C4.84132 15.9086 5.10899 16.4972 5.5603 16.9284C6.01162 17.3596 6.61182 17.6001 7.23601 17.6H12.764C13.388 17.5999 13.988 17.3592 14.4391 16.928C14.8902 16.4968 15.1577 15.9084 15.186 15.285L15.579 6.639H16.477C16.6428 6.639 16.8017 6.57315 16.919 6.45594C17.0362 6.33873 17.102 6.17976 17.102 6.014C17.102 5.84824 17.0362 5.68927 16.919 5.57206C16.8017 5.45485 16.6428 5.389 16.477 5.389H13.614V3.925C13.614 3.083 12.931 2.4 12.089 2.4H7.91001C7.06801 2.4 6.38601 3.083 6.38601 3.925ZM7.91001 3.65H12.09C12.24 3.65 12.364 3.773 12.364 3.925V5.389H7.63601V3.925C7.63601 3.773 7.75901 3.65 7.91001 3.65ZM7.01001 6.64H14.328L13.938 15.228C13.9244 15.5302 13.7947 15.8155 13.576 16.0245C13.3574 16.2334 13.0665 16.3501 12.764 16.35H7.23601C6.93352 16.3501 6.64267 16.2334 6.42399 16.0245C6.20531 15.8155 6.07565 15.5302 6.06201 15.228L5.67201 6.639L7.01001 6.64Z" fill="#EB5757"/>
</svg>
