<svg width="20" height="20" viewBox="0 0 20 20" fill="none" xmlns="http://www.w3.org/2000/svg">
<path d="M16.774 4.341L16.184 4.93L15.075 3.82L15.671 3.226C15.8178 3.08072 16.0159 2.99923 16.2225 2.99923C16.429 2.99923 16.6272 3.08072 16.774 3.226C17.076 3.528 17.076 4.026 16.774 4.328V4.341ZM8.64998 12.462L15.466 5.649L14.356 4.539L7.53398 11.347C7.42858 11.46 7.34817 11.5939 7.29798 11.74L7.00898 12.672C6.95698 12.868 7.13998 13.052 7.32398 12.986L8.25598 12.698C8.40551 12.6547 8.54126 12.5734 8.64998 12.462Z" fill="black" fill-opacity="0.8"/>
<path d="M4.375 6.25C4.375 5.214 5.215 4.375 6.25 4.375H11C11.1658 4.375 11.3247 4.30915 11.4419 4.19194C11.5592 4.07473 11.625 3.91576 11.625 3.75C11.625 3.58424 11.5592 3.42527 11.4419 3.30806C11.3247 3.19085 11.1658 3.125 11 3.125H6.25C5.4212 3.125 4.62634 3.45424 4.04029 4.04029C3.45424 4.62634 3.125 5.4212 3.125 6.25V13.75C3.125 15.476 4.525 16.875 6.25 16.875H13.75C15.476 16.875 16.875 15.475 16.875 13.75V9C16.875 8.83424 16.8092 8.67527 16.6919 8.55806C16.5747 8.44085 16.4158 8.375 16.25 8.375C16.0842 8.375 15.9253 8.44085 15.8081 8.55806C15.6908 8.67527 15.625 8.83424 15.625 9V13.75C15.625 14.786 14.785 15.625 13.75 15.625H6.25C6.00377 15.625 5.75995 15.5765 5.53247 15.4823C5.30498 15.388 5.09828 15.2499 4.92417 15.0758C4.75006 14.9017 4.61195 14.695 4.51773 14.4675C4.4235 14.24 4.375 13.9962 4.375 13.75V6.25Z" fill="black" fill-opacity="0.8"/>
</svg>
