<svg width="20" height="20" viewBox="0 0 20 20" fill="none" xmlns="http://www.w3.org/2000/svg">
<path d="M4.5 2.375C3.93641 2.375 3.39591 2.59888 2.9974 2.9974C2.59888 3.39591 2.375 3.93641 2.375 4.5V12C2.375 13.174 3.326 14.125 4.5 14.125H6.125V15.75C6.125 16.924 7.076 17.875 8.25 17.875H15.75C16.3136 17.875 16.8541 17.6511 17.2526 17.2526C17.6511 16.8541 17.875 16.3136 17.875 15.75V8.25C17.875 7.68641 17.6511 7.14591 17.2526 6.7474C16.8541 6.34888 16.3136 6.125 15.75 6.125H14.125V4.5C14.125 3.93641 13.9011 3.39591 13.5026 2.9974C13.1041 2.59888 12.5636 2.375 12 2.375H4.5ZM12.875 6.125H8.25C7.68641 6.125 7.14591 6.34888 6.7474 6.7474C6.34888 7.14591 6.125 7.68641 6.125 8.25V12.875H4.5C4.26794 12.875 4.04538 12.7828 3.88128 12.6187C3.71719 12.4546 3.625 12.2321 3.625 12V4.5C3.625 4.017 4.017 3.625 4.5 3.625H12C12.483 3.625 12.875 4.017 12.875 4.5V6.125ZM7.375 8.25C7.375 7.767 7.767 7.375 8.25 7.375H15.75C16.233 7.375 16.625 7.767 16.625 8.25V15.75C16.625 15.9821 16.5328 16.2046 16.3687 16.3687C16.2046 16.5328 15.9821 16.625 15.75 16.625H8.25C8.01794 16.625 7.79538 16.5328 7.63128 16.3687C7.46719 16.2046 7.375 15.9821 7.375 15.75V8.25Z" fill="black" fill-opacity="0.8"/>
</svg>
