<svg width="14" height="14" viewBox="0 0 14 14" fill="none" xmlns="http://www.w3.org/2000/svg">
<g clip-path="url(#clip0_52_2)">
<path fill-rule="evenodd" clip-rule="evenodd" d="M7 0C10.861 0 14 3.139 14 7C14 10.861 10.861 14 7 14C3.139 14 0 10.861 0 7C0 3.139 3.139 0 7 0ZM3.561 5.295C3.561 5.56738 3.6692 5.8286 3.8618 6.0212C4.0544 6.2138 4.31562 6.322 4.588 6.322C4.86038 6.322 5.1216 6.2138 5.3142 6.0212C5.5068 5.8286 5.615 5.56738 5.615 5.295C5.615 5.02262 5.5068 4.7614 5.3142 4.5688C5.1216 4.3762 4.86038 4.268 4.588 4.268C4.31562 4.268 4.0544 4.3762 3.8618 4.5688C3.6692 4.7614 3.561 5.02262 3.561 5.295ZM9.118 6.322C8.84562 6.322 8.5844 6.2138 8.3918 6.0212C8.1992 5.8286 8.091 5.56738 8.091 5.295C8.091 5.02262 8.1992 4.7614 8.3918 4.5688C8.5844 4.3762 8.84562 4.268 9.118 4.268C9.39038 4.268 9.6516 4.3762 9.8442 4.5688C10.0368 4.7614 10.145 5.02262 10.145 5.295C10.145 5.56738 10.0368 5.8286 9.8442 6.0212C9.6516 6.2138 9.39038 6.322 9.118 6.322ZM10.329 9.138C10.3927 9.05868 10.44 8.96752 10.4683 8.8698C10.4965 8.77207 10.5052 8.66972 10.4936 8.56865C10.4821 8.46758 10.4506 8.36979 10.4011 8.28094C10.3516 8.19209 10.2849 8.11394 10.205 8.051C10.0446 7.92108 9.83952 7.85949 9.63407 7.87951C9.42863 7.89953 9.23931 7.99956 9.107 8.158C8.834 8.565 7.947 9.116 6.853 9.116C5.76 9.116 4.872 8.566 4.609 8.171C4.54522 8.08939 4.46598 8.02115 4.37581 7.97019C4.28564 7.91922 4.1863 7.88654 4.08349 7.874C3.98067 7.86146 3.87639 7.86932 3.77662 7.89711C3.67684 7.92491 3.58352 7.97211 3.502 8.036C3.33983 8.16567 3.23556 8.35423 3.21196 8.56052C3.18835 8.7668 3.24732 8.97405 3.376 9.137C3.926 9.871 5.186 10.679 6.853 10.679C8.521 10.679 9.701 9.924 10.329 9.138Z" fill="black" fill-opacity="0.3"/>
</g>
<defs>
<clipPath id="clip0_52_2">
<rect width="14" height="14" fill="white"/>
</clipPath>
</defs>
</svg>
