<svg width="14" height="14" viewBox="0 0 14 14" fill="none" xmlns="http://www.w3.org/2000/svg">
<g clip-path="url(#clip0_52_4)">
<path fill-rule="evenodd" clip-rule="evenodd" d="M2.14286 0.200001C1.62758 0.200001 1.13341 0.404694 0.76905 0.76905C0.404694 1.13341 0.200001 1.62758 0.200001 2.14286L0.200001 11.8571C0.200001 12.3724 0.404694 12.8666 0.76905 13.231C1.13341 13.5953 1.62758 13.8 2.14286 13.8H11.8571C12.3724 13.8 12.8666 13.5953 13.231 13.231C13.5953 12.8666 13.8 12.3724 13.8 11.8571V2.14286C13.8 1.62758 13.5953 1.13341 13.231 0.76905C12.8666 0.404694 12.3724 0.200001 11.8571 0.200001L2.14286 0.200001ZM2.14286 11.8571H11.8571L8.45714 5.54286L6.51429 9.42857L4.57143 7.97143L2.14286 11.8571Z" fill="#37352F" fill-opacity="0.35"/>
</g>
<defs>
<clipPath id="clip0_52_4">
<rect width="14" height="14" fill="white"/>
</clipPath>
</defs>
</svg>
