<svg width="20" height="20" viewBox="0 0 20 20" fill="none" xmlns="http://www.w3.org/2000/svg">
<path d="M4 11.375C4.36467 11.375 4.71441 11.2301 4.97227 10.9723C5.23013 10.7144 5.375 10.3647 5.375 10C5.375 9.63533 5.23013 9.28559 4.97227 9.02773C4.71441 8.76987 4.36467 8.625 4 8.625C3.63533 8.625 3.28559 8.76987 3.02773 9.02773C2.76987 9.28559 2.625 9.63533 2.625 10C2.625 10.3647 2.76987 10.7144 3.02773 10.9723C3.28559 11.2301 3.63533 11.375 4 11.375ZM10 11.375C10.3647 11.375 10.7144 11.2301 10.9723 10.9723C11.2301 10.7144 11.375 10.3647 11.375 10C11.375 9.63533 11.2301 9.28559 10.9723 9.02773C10.7144 8.76987 10.3647 8.625 10 8.625C9.63533 8.625 9.28559 8.76987 9.02773 9.02773C8.76987 9.28559 8.625 9.63533 8.625 10C8.625 10.3647 8.76987 10.7144 9.02773 10.9723C9.28559 11.2301 9.63533 11.375 10 11.375ZM16 11.375C16.3647 11.375 16.7144 11.2301 16.9723 10.9723C17.2301 10.7144 17.375 10.3647 17.375 10C17.375 9.63533 17.2301 9.28559 16.9723 9.02773C16.7144 8.76987 16.3647 8.625 16 8.625C15.6353 8.625 15.2856 8.76987 15.0277 9.02773C14.7699 9.28559 14.625 9.63533 14.625 10C14.625 10.3647 14.7699 10.7144 15.0277 10.9723C15.2856 11.2301 15.6353 11.375 16 11.375Z" fill="black" fill-opacity="0.8"/>
</svg>
