<svg width="20" height="20" viewBox="0 0 20 20" fill="none" xmlns="http://www.w3.org/2000/svg">
<path d="M10.594 2.83C10.553 2.70477 10.4735 2.5957 10.3668 2.51837C10.2602 2.44103 10.1318 2.39939 10 2.39939C9.86825 2.39939 9.73986 2.44103 9.63318 2.51837C9.5265 2.5957 9.44699 2.70477 9.40601 2.83L7.89901 7.468H3.02501C2.89322 7.46826 2.76488 7.51017 2.65835 7.58775C2.55181 7.66532 2.47252 7.77459 2.43181 7.89994C2.3911 8.02528 2.39106 8.16029 2.43168 8.28566C2.47231 8.41103 2.55152 8.52035 2.65801 8.598L6.60001 11.462L5.09401 16.098C5.05309 16.2236 5.053 16.3589 5.09375 16.4845C5.13451 16.6101 5.21402 16.7196 5.32086 16.7973C5.42771 16.8749 5.5564 16.9167 5.68848 16.9166C5.82055 16.9166 5.94922 16.8747 6.05601 16.797L10 13.932L13.943 16.797C14.0498 16.8747 14.1785 16.9166 14.3105 16.9166C14.4426 16.9167 14.5713 16.8749 14.6782 16.7973C14.785 16.7196 14.8645 16.6101 14.9053 16.4845C14.946 16.3589 14.9459 16.2236 14.905 16.098L13.4 11.462L17.343 8.597C17.4495 8.51935 17.5287 8.41003 17.5693 8.28466C17.61 8.15929 17.6099 8.02428 17.5692 7.89894C17.5285 7.77359 17.4492 7.66432 17.3427 7.58675C17.2361 7.50917 17.1078 7.46726 16.976 7.467H12.1L10.594 2.83Z" fill="#F6C050"/>
</svg>
