<svg width="20" height="20" viewBox="0 0 20 20" fill="none" xmlns="http://www.w3.org/2000/svg">
<path fill-rule="evenodd" clip-rule="evenodd" d="M5.79331 5.57891C6.02276 5.21835 6.42052 5 6.84789 5H13.1521C13.5795 5 13.9772 5.21835 14.2067 5.57891C14.2139 5.59022 14.2214 5.60134 14.2292 5.61225L16.6496 9H12.25C11.8358 9 11.5 9.33579 11.5 9.75C11.5 10.5784 10.8284 11.25 10 11.25C9.17157 11.25 8.5 10.5784 8.5 9.75C8.5 9.33579 8.16421 9 7.75 9H3.35037L5.77082 5.61225C5.77861 5.60134 5.78611 5.59022 5.79331 5.57891ZM3 10.5V14.25C3 14.9404 3.55964 15.5 4.25 15.5H15.75C16.4404 15.5 17 14.9404 17 14.25V10.5H12.9055C12.5725 11.7939 11.3979 12.75 10 12.75C8.60212 12.75 7.42755 11.7939 7.09451 10.5H3ZM6.84789 3.5C5.91491 3.5 5.04609 3.97299 4.53955 4.75532L1.82609 8.55319C1.61401 8.85003 1.5 9.20572 1.5 9.57053V14.25C1.5 15.7688 2.73122 17 4.25 17H15.75C17.2688 17 18.5 15.7688 18.5 14.25V9.57053C18.5 9.20572 18.386 8.85003 18.1739 8.55319L15.4604 4.75531C14.9539 3.97299 14.0851 3.5 13.1521 3.5H6.84789Z" fill="black" fill-opacity="0.4"/>
</svg>
