<svg width="24" height="24" viewBox="0 0 24 24" fill="none" xmlns="http://www.w3.org/2000/svg">
<path fill-rule="evenodd" clip-rule="evenodd" d="M9.944 14.721C10.048 14.815 10.16 14.841 10.28 14.8L11.983 14.112L18.827 7.268L17.421 5.87L10.585 12.706L9.874 14.386C9.822 14.516 9.845 14.628 9.944 14.721ZM18.046 5.237L19.46 6.643L19.975 6.12C20.1482 5.95401 20.2494 5.72676 20.257 5.487C20.2628 5.37245 20.2426 5.25806 20.1979 5.15242C20.1533 5.04678 20.0852 4.95262 19.999 4.877L19.749 4.627C19.6728 4.55453 19.5813 4.50011 19.4813 4.46774C19.3812 4.43537 19.2752 4.42589 19.171 4.44C18.9362 4.46115 18.717 4.56666 18.554 4.737L18.046 5.237ZM8.593 5.364C7.57192 5.364 6.59265 5.76963 5.87064 6.49164C5.14862 7.21366 4.743 8.19292 4.743 9.214V15.714C4.743 16.7351 5.14862 17.7143 5.87064 18.4364C6.59265 19.1584 7.57192 19.564 8.593 19.564H15.093C16.1141 19.564 17.0933 19.1584 17.8154 18.4364C18.5374 17.7143 18.943 16.7351 18.943 15.714V12.95C18.943 12.7246 18.8534 12.5084 18.694 12.349C18.5346 12.1896 18.3184 12.1 18.093 12.1C17.8676 12.1 17.6514 12.1896 17.492 12.349C17.3326 12.5084 17.243 12.7246 17.243 12.95V15.714C17.243 16.2842 17.0165 16.8311 16.6133 17.2343C16.2101 17.6375 15.6632 17.864 15.093 17.864H8.593C8.02278 17.864 7.47592 17.6375 7.07272 17.2343C6.66952 16.8311 6.443 16.2842 6.443 15.714V9.214C6.443 8.64379 6.66952 8.09693 7.07272 7.69372C7.47592 7.29052 8.02278 7.064 8.593 7.064H11.988C12.2134 7.064 12.4296 6.97445 12.589 6.81504C12.7484 6.65564 12.838 6.43944 12.838 6.214C12.838 5.98857 12.7484 5.77237 12.589 5.61296C12.4296 5.45356 12.2134 5.364 11.988 5.364H8.593Z" fill="black" fill-opacity="0.8"/>
</svg>
