<svg width="24" height="24" viewBox="0 0 24 24" fill="none" xmlns="http://www.w3.org/2000/svg">
<path d="M11.0737 17.8242C11.2241 17.9746 11.4087 18.0566 11.6275 18.0566C12.0718 18.0566 12.4204 17.708 12.4204 17.2636C12.4204 17.0449 12.3316 16.8398 12.1812 16.6894L7.3755 11.9932L12.1812 7.31055C12.3316 7.15332 12.4204 6.94825 12.4204 6.73633C12.4204 6.292 12.0718 5.94336 11.6275 5.94336C11.4087 5.94336 11.2241 6.02539 11.0737 6.17578L5.74171 11.3848C5.56398 11.5557 5.46827 11.7607 5.46827 12C5.46827 12.2324 5.55714 12.4307 5.74171 12.6152L11.0737 17.8242ZM17.1782 17.8242C17.3286 17.9746 17.5132 18.0566 17.7388 18.0566C18.1831 18.0566 18.5317 17.708 18.5317 17.2636C18.5317 17.0449 18.4429 16.8398 18.2925 16.6894L13.4868 11.9932L18.2925 7.31055C18.4429 7.15332 18.5317 6.94825 18.5317 6.73633C18.5317 6.292 18.1831 5.94336 17.7388 5.94336C17.5132 5.94336 17.3286 6.02539 17.1782 6.17578L11.853 11.3848C11.6685 11.5557 11.5796 11.7607 11.5728 12C11.5728 12.2324 11.6685 12.4307 11.853 12.6152L17.1782 17.8242Z" fill="black" fill-opacity="0.8"/>
</svg>
