<svg width="20" height="20" viewBox="0 0 20 20" fill="none" xmlns="http://www.w3.org/2000/svg">
<path d="M5.96356 18.2056H14.0364C15.6586 18.2056 16.5 17.3489 16.5 15.7192V8.844C16.5 7.79037 16.3636 7.30523 15.7041 6.63817L11.7245 2.59036C11.0878 1.94605 10.5647 1.79444 9.6172 1.79444H5.96356C4.34139 1.79444 3.5 2.651 3.5 4.28074V15.7192C3.5 17.3565 4.34139 18.2056 5.96356 18.2056ZM6.08483 16.7198C5.34955 16.7198 4.98571 16.3332 4.98571 15.6283V4.3717C4.98571 3.67432 5.34955 3.28015 6.08483 3.28015H9.31399V7.4341C9.31399 8.51806 9.85218 9.04108 10.9286 9.04108H15.0143V15.6283C15.0143 16.3332 14.6429 16.7198 13.9076 16.7198H6.08483ZM11.065 7.73729C10.7542 7.73729 10.6254 7.60086 10.6254 7.29006V3.48482L14.8096 7.73729H11.065ZM12.7023 11.0347H7.15364C6.86559 11.0347 6.66093 11.2469 6.66093 11.5122C6.66093 11.7851 6.86559 11.9974 7.15364 11.9974H12.7023C12.9752 11.9974 13.1799 11.7851 13.1799 11.5122C13.1799 11.2469 12.9752 11.0347 12.7023 11.0347ZM12.7023 13.5817H7.15364C6.86559 13.5817 6.66093 13.7939 6.66093 14.0668C6.66093 14.332 6.86559 14.5367 7.15364 14.5367H12.7023C12.9752 14.5367 13.1799 14.332 13.1799 14.0668C13.1799 13.7939 12.9752 13.5817 12.7023 13.5817Z" fill="black" fill-opacity="0.4"/>
</svg>
