<svg width="20" height="20" viewBox="0 0 20 20" fill="none" xmlns="http://www.w3.org/2000/svg">
<path d="M9.99999 12.6514C10.2441 12.6514 10.4443 12.5635 10.6348 12.3633L14.253 8.67187C14.3995 8.52539 14.4727 8.34472 14.4727 8.12988C14.4727 7.70019 14.1211 7.34863 13.6963 7.34863C13.4814 7.34863 13.2812 7.43652 13.125 7.59765L10.0049 10.8154L6.87987 7.59765C6.71874 7.43652 6.52343 7.34863 6.3037 7.34863C5.87402 7.34863 5.52734 7.70019 5.52734 8.12988C5.52734 8.34472 5.60058 8.52539 5.74706 8.67187L9.36523 12.3633C9.56054 12.5684 9.76073 12.6514 9.99999 12.6514Z" fill="black" fill-opacity="0.3"/>
</svg>
