<svg width="20" height="20" viewBox="0 0 20 20" fill="none" xmlns="http://www.w3.org/2000/svg">
<path d="M6.5 10C6.5 10.2967 6.41203 10.5867 6.24721 10.8334C6.08238 11.08 5.84812 11.2723 5.57403 11.3858C5.29994 11.4994 4.99834 11.5291 4.70737 11.4712C4.41639 11.4133 4.14912 11.2704 3.93934 11.0607C3.72956 10.8509 3.5867 10.5836 3.52882 10.2926C3.47094 10.0017 3.50065 9.70006 3.61418 9.42597C3.72771 9.15189 3.91997 8.91762 4.16665 8.7528C4.41332 8.58797 4.70333 8.5 5 8.5C5.39783 8.5 5.77936 8.65804 6.06066 8.93934C6.34197 9.22064 6.5 9.60218 6.5 10Z" fill="black" fill-opacity="0.4"/>
<path d="M11.5 10C11.5 10.2967 11.412 10.5867 11.2472 10.8334C11.0824 11.08 10.8481 11.2723 10.574 11.3858C10.2999 11.4994 9.99834 11.5291 9.70737 11.4712C9.41639 11.4133 9.14912 11.2704 8.93934 11.0607C8.72956 10.8509 8.5867 10.5836 8.52882 10.2926C8.47094 10.0017 8.50065 9.70006 8.61418 9.42597C8.72771 9.15189 8.91997 8.91762 9.16665 8.7528C9.41332 8.58797 9.70333 8.5 10 8.5C10.3978 8.5 10.7794 8.65804 11.0607 8.93934C11.342 9.22064 11.5 9.60218 11.5 10Z" fill="black" fill-opacity="0.4"/>
<path d="M16.5 10C16.5 10.2967 16.412 10.5867 16.2472 10.8334C16.0824 11.08 15.8481 11.2723 15.574 11.3858C15.2999 11.4994 14.9983 11.5291 14.7074 11.4712C14.4164 11.4133 14.1491 11.2704 13.9393 11.0607C13.7296 10.8509 13.5867 10.5836 13.5288 10.2926C13.4709 10.0017 13.5006 9.70006 13.6142 9.42597C13.7277 9.15189 13.92 8.91762 14.1666 8.7528C14.4133 8.58797 14.7033 8.5 15 8.5C15.3978 8.5 15.7794 8.65804 16.0607 8.93934C16.342 9.22064 16.5 9.60218 16.5 10Z" fill="black" fill-opacity="0.4"/>
</svg>
