<svg width="20" height="20" viewBox="0 0 20 20" fill="none" xmlns="http://www.w3.org/2000/svg">
<path d="M4.83646 10C4.83646 10.4334 5.19657 10.7874 5.62381 10.7874H9.21268V14.3762C9.21268 14.8095 9.56668 15.1635 10 15.1635C10.4334 15.1635 10.7874 14.8095 10.7874 14.3762V10.7874H14.3763C14.8096 10.7874 15.1636 10.4334 15.1636 10C15.1636 9.56667 14.8096 9.21267 14.3763 9.21267H10.7874V5.6238C10.7874 5.19656 10.4334 4.83645 10 4.83645C9.56668 4.83645 9.21268 5.19656 9.21268 5.6238V9.21267H5.62381C5.19657 9.21267 4.83646 9.56667 4.83646 10Z" fill="black" fill-opacity="0.4"/>
</svg>
