<svg width="20" height="20" viewBox="0 0 20 20" fill="none" xmlns="http://www.w3.org/2000/svg">
<path d="M16.5 5.25H13.75V4C13.75 3.03516 12.9648 2.25 12 2.25H8C7.03516 2.25 6.25 3.03516 6.25 4V5.25H3.5C3.08594 5.25 2.75 5.58594 2.75 6C2.75 6.41406 3.08594 6.75 3.5 6.75H4.28351L4.66406 15.125C4.73096 16.5967 5.93799 17.75 7.41113 17.75H12.5889C14.0625 17.75 15.2686 16.5967 15.3359 15.125L15.7169 6.75H16.5C16.9141 6.75 17.25 6.41406 17.25 6C17.25 5.58594 16.9141 5.25 16.5 5.25ZM7.75 4C7.75 3.8623 7.8623 3.75 8 3.75H12C12.1377 3.75 12.25 3.8623 12.25 4V5.25H7.75V4ZM13.8379 15.0566C13.8066 15.7256 13.2588 16.25 12.5889 16.25H7.41113C6.74121 16.25 6.19287 15.7256 6.16211 15.0566L5.78467 6.75H14.2148L13.8379 15.0566ZM8.875 8.5V14.5C8.875 14.8447 8.59521 15.125 8.25 15.125C7.90479 15.125 7.625 14.8447 7.625 14.5V8.5C7.625 8.15479 7.90479 7.875 8.25 7.875C8.59521 7.875 8.875 8.15479 8.875 8.5ZM12.375 8.5V14.5C12.375 14.8447 12.0947 15.125 11.75 15.125C11.4053 15.125 11.125 14.8447 11.125 14.5V8.5C11.125 8.15479 11.4053 7.875 11.75 7.875C12.0947 7.875 12.375 8.15479 12.375 8.5Z" fill="black" fill-opacity="0.4"/>
</svg>
