<svg width="20" height="20" viewBox="0 0 20 20" fill="none" xmlns="http://www.w3.org/2000/svg">
<path d="M18.1572 15.3721L15.8554 11.3856C16.5215 11.1381 17 10.5012 17 9.75V3.75C17 2.78516 16.2148 2 15.25 2H9C8.03516 2 7.25 2.78516 7.25 3.75V5.31348C7.00232 5.27789 6.75305 5.25 6.5 5.25C3.60498 5.25 1.25 7.60498 1.25 10.5C1.25 13.3945 3.60498 15.75 6.5 15.75C6.84845 15.75 7.18909 15.7042 7.5246 15.6378C7.33997 16.1248 7.36743 16.6603 7.63477 17.124C7.95166 17.6729 8.51904 18 9.15234 18H16.6396C17.2725 18 17.8398 17.6729 18.1562 17.125C18.4736 16.5762 18.4736 15.9219 18.1572 15.3721ZM9 3.5H15.25C15.3877 3.5 15.5 3.6123 15.5 3.75V9.75C15.5 9.8877 15.3877 10 15.25 10H15.0554L14.4131 8.8877C14.0967 8.33936 13.5293 8.01172 12.8965 8.01172C12.2627 8.01172 11.6953 8.33936 11.3789 8.8877L10.7368 10H8.99463C8.85986 10 8.75 9.89014 8.75 9.75537V6.21521C8.74994 6.21387 8.75012 6.21259 8.75 6.21124V3.75C8.75 3.6123 8.8623 3.5 9 3.5ZM2.75 10.5C2.75 8.43213 4.43213 6.75 6.5 6.75C6.75452 6.75 7.00409 6.7832 7.25 6.83325V9.75537C7.25 10.7173 8.03271 11.5 8.99463 11.5H9.87073L8.68481 13.5541C8.6781 13.5585 8.67017 13.5588 8.66357 13.5635C8.0293 14.0127 7.28076 14.25 6.5 14.25C4.43213 14.25 2.75 12.5674 2.75 10.5ZM16.8574 16.374C16.8301 16.4209 16.7656 16.5 16.6396 16.5H9.15234C9.02588 16.5 8.96143 16.4209 8.93408 16.374C8.90674 16.3271 8.87061 16.2314 8.93408 16.1221L12.6777 9.6377C12.8027 9.42139 12.9854 9.41748 13.1143 9.6377L16.8584 16.1211C16.9209 16.2314 16.8848 16.3271 16.8574 16.374Z" fill="black" fill-opacity="0.4"/>
</svg>
