<svg width="20" height="20" viewBox="0 0 20 20" fill="none" xmlns="http://www.w3.org/2000/svg">
<path d="M10 13C8.35003 13 7.00003 11.65 7.00003 10C7.00003 8.35 8.35003 7 10 7C11.65 7 13 8.35 13 10C13 11.65 11.65 13 10 13ZM10 8.5C9.17003 8.5 8.50003 9.17 8.50003 10C8.50003 10.83 9.17003 11.5 10 11.5C10.83 11.5 11.5 10.83 11.5 10C11.5 9.17 10.83 8.5 10 8.5ZM10.02 18.45C9.45003 18.45 8.90003 18.4 8.36003 18.29C8.08003 18.23 7.85003 18.01 7.80003 17.72L7.51003 16.06C7.51003 16.06 7.42003 16.02 7.37003 16L6.01003 16.96C5.77003 17.13 5.45003 17.13 5.21003 16.96C4.78003 16.67 4.39003 16.34 4.03003 15.98C3.63003 15.57 3.27003 15.15 2.97003 14.69C2.81003 14.45 2.81003 14.13 2.97003 13.9L3.94003 12.52C3.94003 12.52 3.90003 12.43 3.88003 12.38L2.24003 12.1C1.95003 12.05 1.72003 11.83 1.67003 11.54C1.58003 11.04 1.53003 10.52 1.53003 10.01C1.53003 9.44 1.58003 8.89 1.69003 8.35C1.75003 8.07 1.97003 7.84 2.26003 7.79L3.92003 7.5C3.92003 7.5 3.96003 7.41 3.98003 7.36L3.02003 6C2.85003 5.76 2.85003 5.44 3.02003 5.2C3.31003 4.78 3.64003 4.38 4.00003 4.02C4.40003 3.62 4.83003 3.27 5.28003 2.96C5.52003 2.8 5.84003 2.8 6.07003 2.96L7.45003 3.93C7.45003 3.93 7.54003 3.89 7.59003 3.87L7.87003 2.23C7.92003 1.94 8.14003 1.71 8.43003 1.66C8.93003 1.57 9.45003 1.52 9.96003 1.52C10.53 1.52 11.08 1.57 11.62 1.68C11.91 1.74 12.13 1.96 12.17 2.25L12.46 3.91C12.46 3.91 12.55 3.95 12.6 3.97L13.96 3.01C14.2 2.84 14.52 2.84 14.76 3.01C15.18 3.3 15.58 3.63 15.94 3.99C16.35 4.4 16.7 4.82 17 5.27C17.16 5.51 17.16 5.83 17 6.06L16.03 7.44C16.03 7.44 16.07 7.53 16.09 7.58L17.73 7.86C18.02 7.91 18.24 8.13 18.3 8.42C18.39 8.92 18.44 9.44 18.44 9.95C18.44 10.52 18.39 11.07 18.28 11.61C18.22 11.89 18 12.12 17.71 12.16L16.05 12.45C16.05 12.45 16.01 12.54 15.99 12.59L16.95 13.95C17.12 14.19 17.12 14.51 16.95 14.75C16.66 15.17 16.33 15.57 15.97 15.93C15.57 16.34 15.14 16.69 14.69 16.99C14.45 17.15 14.13 17.15 13.9 16.99L12.52 16.02C12.52 16.02 12.43 16.06 12.38 16.08L12.1 17.72C12.05 18.01 11.83 18.23 11.54 18.29C11.04 18.38 10.52 18.43 10.01 18.43L10.02 18.45ZM9.10003 16.99C9.68003 17.06 10.26 17.06 10.82 16.99L11.09 15.44C11.13 15.18 11.32 14.97 11.57 14.89C11.82 14.81 12.07 14.71 12.3 14.59C12.53 14.47 12.8 14.5 13.02 14.64L14.32 15.56C14.56 15.38 14.78 15.18 14.99 14.97C15.19 14.77 15.37 14.57 15.54 14.36L14.64 13.08C14.49 12.87 14.47 12.58 14.59 12.35C14.7 12.13 14.8 11.89 14.89 11.62C14.97 11.37 15.18 11.19 15.43 11.15L17 10.88C17.04 10.58 17.06 10.28 17.06 9.99C17.06 9.71 17.04 9.44 17.01 9.17L15.46 8.9C15.2 8.86 14.99 8.67 14.91 8.42C14.83 8.17 14.73 7.92 14.61 7.69C14.49 7.46 14.52 7.18 14.66 6.97L15.58 5.67C15.4 5.44 15.2 5.21 14.99 5C14.79 4.8 14.59 4.62 14.37 4.45L13.09 5.35C12.88 5.5 12.6 5.52 12.37 5.4C12.15 5.29 11.91 5.19 11.64 5.1C11.4 5.02 11.22 4.81 11.17 4.56L10.9 2.99C10.33 2.92 9.74003 2.92 9.18003 2.99L8.91003 4.54C8.87003 4.8 8.68003 5.01 8.43003 5.09C8.18003 5.17 7.93003 5.27 7.70003 5.39C7.47003 5.51 7.19003 5.49 6.98003 5.34L5.68003 4.42C5.44003 4.6 5.22003 4.8 5.01003 5.01C4.81003 5.21 4.63003 5.41 4.46003 5.62L5.36003 6.9C5.51003 7.11 5.53003 7.39 5.41003 7.62C5.30003 7.84 5.20003 8.08 5.11003 8.35C5.03003 8.59 4.82003 8.77 4.57003 8.82L3.00003 9.09C2.96003 9.39 2.94003 9.69 2.94003 9.98C2.94003 10.26 2.96003 10.53 2.99003 10.8L4.54003 11.07C4.80003 11.11 5.01003 11.3 5.09003 11.55C5.17003 11.8 5.27003 12.05 5.39003 12.28C5.50003 12.51 5.48003 12.79 5.34003 13L4.42003 14.3C4.60003 14.54 4.80003 14.76 5.01003 14.97C5.21003 15.17 5.41003 15.35 5.62003 15.52L6.90003 14.62C7.11003 14.47 7.39003 14.45 7.63003 14.57C7.85003 14.68 8.09003 14.78 8.36003 14.87C8.61003 14.95 8.79003 15.16 8.83003 15.41L9.10003 16.98V16.99Z" fill="black" fill-opacity="0.4"/>
</svg>
