<svg width="20" height="20" viewBox="0 0 20 20" fill="none" xmlns="http://www.w3.org/2000/svg">
<path d="M7.663 5.794C7.67 6.16213 7.60354 6.52795 7.4675 6.87009C7.33146 7.21223 7.12857 7.52381 6.87071 7.78662C6.61284 8.04943 6.30517 8.2582 5.96568 8.40071C5.62619 8.54323 5.26169 8.61663 4.8935 8.61663C4.52531 8.61663 4.16082 8.54323 3.82133 8.40071C3.48184 8.2582 3.17416 8.04943 2.9163 7.78662C2.65843 7.52381 2.45555 7.21223 2.31951 6.87009C2.18347 6.52795 2.11701 6.16213 2.124 5.794C2.13779 5.0686 2.43563 4.37756 2.95351 3.86943C3.4714 3.36129 4.16797 3.07663 4.8935 3.07663C5.61904 3.07663 6.31561 3.36129 6.83349 3.86943C7.35138 4.37756 7.64922 5.0686 7.663 5.794ZM6.413 5.794C6.41821 5.59118 6.38275 5.38937 6.30873 5.20046C6.23471 5.01156 6.12362 4.83938 5.982 4.69409C5.84039 4.54879 5.67112 4.43332 5.48418 4.35448C5.29723 4.27564 5.09639 4.23502 4.8935 4.23502C4.69061 4.23502 4.48978 4.27564 4.30283 4.35448C4.11589 4.43332 3.94662 4.54879 3.80501 4.69409C3.66339 4.83938 3.5523 5.01156 3.47828 5.20046C3.40426 5.38937 3.3688 5.59118 3.374 5.794C3.38417 6.19025 3.54872 6.56685 3.83257 6.84352C4.11643 7.12018 4.49713 7.27502 4.8935 7.27502C5.28988 7.27502 5.67058 7.12018 5.95443 6.84352C6.23829 6.56685 6.40284 6.19025 6.413 5.794ZM8.91 5.244C8.76414 5.244 8.62424 5.30195 8.5211 5.40509C8.41795 5.50824 8.36 5.64813 8.36 5.794C8.36 5.93987 8.41795 6.07977 8.5211 6.18291C8.62424 6.28606 8.76414 6.344 8.91 6.344H9.00801C9.15387 6.344 9.29377 6.28606 9.39691 6.18291C9.50006 6.07977 9.558 5.93987 9.558 5.794C9.558 5.64813 9.50006 5.50824 9.39691 5.40509C9.29377 5.30195 9.15387 5.244 9.00801 5.244H8.91ZM10.964 5.244C10.8181 5.244 10.6782 5.30195 10.5751 5.40509C10.472 5.50824 10.414 5.64813 10.414 5.794C10.414 5.93987 10.472 6.07977 10.5751 6.18291C10.6782 6.28606 10.8181 6.344 10.964 6.344H11.062C11.2079 6.344 11.3478 6.28606 11.4509 6.18291C11.5541 6.07977 11.612 5.93987 11.612 5.794C11.612 5.64813 11.5541 5.50824 11.4509 5.40509C11.3478 5.30195 11.2079 5.244 11.062 5.244H10.964ZM13.566 9.572C13.6336 9.4461 13.6495 9.29886 13.6104 9.16144C13.5712 9.02402 13.4802 8.90721 13.3565 8.83574C13.2328 8.76427 13.0861 8.74374 12.9475 8.7785C12.8089 8.81327 12.6893 8.9006 12.614 9.022L12.565 9.105C12.5288 9.16751 12.5052 9.23655 12.4956 9.30817C12.4861 9.37979 12.4907 9.45259 12.5093 9.52242C12.5278 9.59225 12.56 9.65774 12.6039 9.71515C12.6477 9.77256 12.7025 9.82076 12.765 9.857C12.8912 9.9302 13.0414 9.95025 13.1824 9.91275C13.3235 9.87524 13.4438 9.78324 13.517 9.657L13.566 9.572ZM7.358 9.021C7.28425 8.89613 7.16416 8.80545 7.02387 8.76869C6.88358 8.73192 6.73445 8.75205 6.60894 8.8247C6.48342 8.89735 6.39167 9.01663 6.35367 9.15659C6.31566 9.29654 6.33447 9.44585 6.406 9.572L6.455 9.657C6.5282 9.78324 6.64856 9.87524 6.78958 9.91275C6.93061 9.95025 7.08076 9.9302 7.207 9.857C7.33325 9.7838 7.42524 9.66345 7.46275 9.52242C7.50026 9.3814 7.4802 9.23124 7.407 9.105L7.358 9.021ZM12.54 11.345C12.5762 11.2825 12.5998 11.2135 12.6094 11.1418C12.619 11.0702 12.6143 10.9974 12.5957 10.9276C12.5772 10.8578 12.545 10.7923 12.5012 10.7349C12.4573 10.6774 12.4025 10.6292 12.34 10.593C12.2775 10.5568 12.2085 10.5332 12.1368 10.5236C12.0652 10.5141 11.9924 10.5187 11.9226 10.5373C11.8528 10.5558 11.7873 10.588 11.7299 10.6319C11.6725 10.6757 11.6242 10.7305 11.588 10.793L11.538 10.878C11.4649 11.0044 11.4451 11.1546 11.4828 11.2956C11.5205 11.4367 11.6126 11.5569 11.739 11.63C11.8654 11.7031 12.0156 11.7229 12.1566 11.6852C12.2977 11.6476 12.4179 11.5554 12.491 11.429L12.54 11.345ZM8.384 10.793C8.34886 10.7285 8.30113 10.6716 8.24365 10.6258C8.18617 10.5801 8.12009 10.5463 8.04933 10.5264C7.97857 10.5066 7.90455 10.5012 7.83165 10.5105C7.75875 10.5197 7.68845 10.5435 7.62489 10.5804C7.56134 10.6173 7.50582 10.6665 7.46162 10.7252C7.41742 10.7839 7.38543 10.8509 7.36754 10.9222C7.34965 10.9935 7.34623 11.0676 7.35747 11.1402C7.36872 11.2128 7.3944 11.2825 7.433 11.345L7.481 11.429C7.51683 11.4922 7.56482 11.5477 7.6222 11.5922C7.67958 11.6367 7.74521 11.6695 7.81531 11.6885C7.88541 11.7075 7.95859 11.7125 8.03061 11.7031C8.10264 11.6937 8.17209 11.6701 8.23496 11.6337C8.29782 11.5974 8.35286 11.5489 8.39689 11.4911C8.44092 11.4333 8.47307 11.3674 8.49148 11.2971C8.50989 11.2269 8.51421 11.1537 8.50417 11.0817C8.49413 11.0098 8.46995 10.9405 8.433 10.878L8.384 10.793ZM15.106 8.563C15.4759 8.57294 15.844 8.50867 16.1887 8.37399C16.5333 8.23931 16.8475 8.03693 17.1126 7.77883C17.3778 7.52072 17.5885 7.2121 17.7324 6.8712C17.8763 6.5303 17.9504 6.16403 17.9504 5.794C17.9504 5.42398 17.8763 5.0577 17.7324 4.7168C17.5885 4.3759 17.3778 4.06729 17.1126 3.80918C16.8475 3.55107 16.5333 3.3487 16.1887 3.21401C15.844 3.07933 15.4759 3.01506 15.106 3.025C14.3845 3.04439 13.6991 3.34463 13.1956 3.86181C12.6921 4.37898 12.4104 5.07224 12.4104 5.794C12.4104 6.51576 12.6921 7.20902 13.1956 7.7262C13.6991 8.24337 14.3845 8.54361 15.106 8.563ZM15.106 7.313C14.9019 7.32041 14.6984 7.2866 14.5076 7.2136C14.3169 7.1406 14.1428 7.0299 13.9957 6.88812C13.8487 6.74634 13.7318 6.57638 13.6519 6.38839C13.572 6.20041 13.5309 5.99825 13.5309 5.794C13.5309 5.58975 13.572 5.3876 13.6519 5.19961C13.7318 5.01163 13.8487 4.84167 13.9957 4.69988C14.1428 4.5581 14.3169 4.4474 14.5076 4.3744C14.6984 4.3014 14.9019 4.26759 15.106 4.275C15.4993 4.28928 15.8718 4.45556 16.145 4.73887C16.4182 5.02218 16.5709 5.40042 16.5709 5.794C16.5709 6.18759 16.4182 6.56583 16.145 6.84913C15.8718 7.13244 15.4993 7.29873 15.106 7.313ZM12.77 14.656C12.77 15.3907 12.4782 16.0952 11.9587 16.6147C11.4392 17.1342 10.7347 17.426 10 17.426C9.26536 17.426 8.56079 17.1342 8.04132 16.6147C7.52184 16.0952 7.23 15.3907 7.23 14.656C7.23 13.9214 7.52184 13.2168 8.04132 12.6973C8.56079 12.1778 9.26536 11.886 10 11.886C10.7347 11.886 11.4392 12.1778 11.9587 12.6973C12.4782 13.2168 12.77 13.9214 12.77 14.656ZM11.52 14.656C11.52 14.2529 11.3599 13.8663 11.0748 13.5812C10.7898 13.2961 10.4031 13.136 10 13.136C9.59688 13.136 9.21026 13.2961 8.9252 13.5812C8.64015 13.8663 8.48 14.2529 8.48 14.656C8.48 15.0591 8.64015 15.4457 8.9252 15.7308C9.21026 16.0159 9.59688 16.176 10 16.176C10.4031 16.176 10.7898 16.0159 11.0748 15.7308C11.3599 15.4457 11.52 15.0591 11.52 14.656Z" fill="black" fill-opacity="0.4"/>
</svg>
